fd_5_states
version=1
nRows=43
nColumns=17
inDegrees=yes

# SIMM Motion File Header:
name fd_5_states
datacolumns 17
datarows 43
otherdata 1
range 0.030000 0.047549
endheader
time	/jointset/r_shoulder/r_shoulder_elev/value	/jointset/r_shoulder/r_shoulder_elev/speed	/jointset/r_elbow/r_elbow_flex/value	/jointset/r_elbow/r_elbow_flex/speed	/forceset/TRIlong/activation	/forceset/TRIlong/fiber_length	/forceset/TRIlat/activation	/forceset/TRIlat/fiber_length	/forceset/TRImed/activation	/forceset/TRImed/fiber_length	/forceset/BIClong/activation	/forceset/BIClong/fiber_length	/forceset/BICshort/activation	/forceset/BICshort/fiber_length	/forceset/BRA/activation	/forceset/BRA/fiber_length
      0.030000	      0.000000	      0.000000	    127.966686	   -383.497898	      0.020000	      0.182174	      0.392914	      0.116164	      0.398118	      0.111172	      0.347803	      0.064092	      0.020000	      0.065967	      0.023985	      0.052952
      0.030120	     -0.000000	     -0.000736	    127.920610	   -383.355605	      0.020000	      0.182159	      0.393468	      0.116149	      0.398616	      0.111157	      0.347512	      0.064125	      0.020000	      0.066000	      0.023980	      0.052955
      0.030240	     -0.000000	     -0.001920	    127.874552	   -383.208349	      0.020000	      0.182145	      0.394138	      0.116133	      0.399218	      0.111141	      0.347171	      0.064158	      0.020000	      0.066034	      0.023973	      0.052961
      0.030631	     -0.000002	     -0.007595	    127.725094	   -382.710408	      0.020000	      0.182097	      0.396259	      0.116082	      0.401128	      0.111091	      0.346070	      0.064267	      0.020000	      0.066141	      0.023953	      0.053002
      0.031026	     -0.000006	     -0.015031	    127.573993	   -382.190037	      0.020000	      0.182048	      0.398325	      0.116031	      0.402989	      0.111039	      0.344969	      0.064379	      0.020000	      0.066250	      0.023932	      0.053097
      0.031421	     -0.000013	     -0.020525	    127.423095	   -381.685822	      0.020000	      0.182000	      0.400312	      0.115979	      0.404780	      0.110987	      0.343881	      0.064491	      0.020000	      0.066360	      0.023911	      0.053125
      0.031882	     -0.000025	     -0.028687	    127.247023	   -381.084450	      0.020000	      0.181943	      0.402540	      0.115918	      0.406788	      0.110926	      0.342625	      0.064623	      0.020000	      0.066487	      0.023887	      0.053193
      0.032344	     -0.000040	     -0.038161	    127.071228	   -380.475256	      0.020000	      0.181886	      0.404669	      0.115856	      0.408709	      0.110865	      0.341386	      0.064755	      0.020000	      0.066615	      0.023863	      0.053287
      0.032806	     -0.000059	     -0.046014	    126.895711	   -379.881807	      0.020000	      0.181830	      0.406706	      0.115795	      0.410548	      0.110803	      0.340163	      0.064887	      0.020000	      0.066743	      0.023839	      0.053329
      0.033176	     -0.000078	     -0.054057	    126.755044	   -379.393732	      0.020000	      0.181785	      0.408277	      0.115745	      0.411966	      0.110754	      0.339194	      0.064994	      0.020000	      0.066846	      0.023820	      0.053423
      0.033547	     -0.000099	     -0.059560	    126.614555	   -378.927347	      0.020000	      0.181740	      0.409793	      0.115695	      0.413336	      0.110705	      0.338235	      0.065100	      0.020000	      0.066949	      0.023801	      0.053448
      0.033958	     -0.000125	     -0.066942	    126.458818	   -378.401507	      0.020000	      0.181689	      0.411414	      0.115640	      0.414801	      0.110650	      0.337183	      0.065218	      0.020000	      0.067063	      0.023780	      0.053508
      0.034369	     -0.000154	     -0.074477	    126.303297	   -377.876340	      0.020000	      0.181639	      0.412974	      0.115585	      0.416211	      0.110595	      0.336143	      0.065336	      0.020000	      0.067177	      0.023760	      0.053567
      0.034782	     -0.000186	     -0.082814	    126.147443	   -377.345140	      0.020000	      0.181589	      0.414479	      0.115529	      0.417572	      0.110540	      0.335112	      0.065454	      0.020000	      0.067292	      0.023739	      0.053663
      0.035195	     -0.000222	     -0.088567	    125.991803	   -376.835491	      0.020000	      0.181539	      0.415928	      0.115474	      0.418883	      0.110485	      0.334093	      0.065573	      0.020000	      0.067407	      0.023718	      0.053694
      0.035870	     -0.000285	     -0.100959	    125.737823	   -375.982729	      0.020000	      0.181457	      0.418178	      0.115384	      0.420919	      0.110395	      0.332453	      0.065766	      0.020000	      0.067594	      0.023685	      0.053831
      0.036460	     -0.000347	     -0.107961	    125.516036	   -375.268485	      0.020000	      0.181386	      0.420035	      0.115305	      0.422601	      0.110316	      0.331043	      0.065936	      0.020000	      0.067761	      0.023656	      0.053877
      0.036822	     -0.000387	     -0.114387	    125.380414	   -374.816218	      0.020000	      0.181342	      0.421122	      0.115257	      0.423586	      0.110268	      0.330191	      0.066040	      0.020000	      0.067860	      0.023638	      0.053982
      0.037183	     -0.000429	     -0.116924	    125.244950	   -374.393806	      0.020000	      0.181298	      0.422175	      0.115208	      0.424539	      0.110221	      0.329348	      0.066144	      0.020000	      0.067961	      0.023621	      0.053999
      0.037588	     -0.000477	     -0.121602	    125.093459	   -373.907892	      0.020000	      0.181249	      0.423312	      0.115155	      0.425570	      0.110167	      0.328415	      0.066260	      0.020000	      0.068074	      0.023601	      0.054056
      0.037993	     -0.000527	     -0.126308	    124.942164	   -373.422566	      0.020000	      0.181200	      0.424408	      0.115101	      0.426563	      0.110114	      0.327492	      0.066376	      0.020000	      0.068187	      0.023581	      0.054114
      0.038398	     -0.000579	     -0.131326	    124.791066	   -372.935705	      0.020000	      0.181152	      0.425464	      0.115047	      0.427521	      0.110060	      0.326579	      0.066493	      0.020000	      0.068301	      0.023562	      0.054179
      0.038788	     -0.000632	     -0.135152	    124.645667	   -372.474691	      0.020000	      0.181105	      0.426445	      0.114996	      0.428411	      0.110009	      0.325710	      0.066605	      0.020000	      0.068410	      0.023544	      0.054234
      0.039178	     -0.000685	     -0.139183	    124.500447	   -372.012721	      0.020000	      0.181058	      0.427392	      0.114944	      0.429270	      0.109958	      0.324850	      0.066717	      0.020000	      0.068519	      0.023525	      0.054290
      0.039578	     -0.000742	     -0.143755	    124.351821	   -371.536661	      0.020000	      0.181010	      0.428328	      0.114892	      0.430119	      0.109906	      0.323979	      0.066832	      0.020000	      0.068631	      0.023506	      0.054379
      0.039978	     -0.000799	     -0.145865	    124.203381	   -371.078846	      0.020000	      0.180962	      0.429231	      0.114839	      0.430939	      0.109854	      0.323117	      0.066947	      0.020000	      0.068743	      0.023488	      0.054411
      0.040481	     -0.000874	     -0.150742	    124.016877	   -370.487420	      0.020000	      0.180901	      0.430255	      0.114773	      0.431878	      0.109788	      0.321974	      0.067092	      0.020000	      0.068884	      0.023464	      0.054517
      0.040984	     -0.000950	     -0.152590	    123.830666	   -369.919074	      0.020000	      0.180841	      0.431178	      0.114708	      0.432735	      0.109723	      0.320788	      0.067237	      0.020000	      0.069025	      0.023441	      0.054558
      0.041347	     -0.001006	     -0.155899	    123.696252	   -369.495471	      0.020000	      0.180798	      0.431820	      0.114660	      0.433330	      0.109676	      0.319942	      0.067342	      0.020000	      0.069127	      0.023424	      0.054649
      0.041711	     -0.001062	     -0.156324	    123.561988	   -369.093431	      0.020000	      0.180754	      0.432441	      0.114613	      0.433907	      0.109629	      0.319104	      0.067448	      0.020000	      0.069229	      0.023408	      0.054673
      0.042110	     -0.001125	     -0.158199	    123.414657	   -368.643026	      0.020000	      0.180707	      0.433101	      0.114561	      0.434520	      0.109577	      0.318193	      0.067563	      0.020000	      0.069342	      0.023390	      0.054730
      0.042510	     -0.001189	     -0.160544	    123.267506	   -368.190622	      0.020000	      0.180659	      0.433737	      0.114510	      0.435111	      0.109526	      0.317292	      0.067679	      0.020000	      0.069454	      0.023371	      0.054792
      0.042947	     -0.001260	     -0.162182	    123.106534	   -367.703027	      0.020000	      0.180607	      0.434409	      0.114453	      0.435735	      0.109470	      0.316317	      0.067805	      0.020000	      0.069577	      0.023352	      0.054856
      0.043385	     -0.001331	     -0.164328	    122.945774	   -367.213273	      0.020000	      0.180555	      0.435056	      0.114397	      0.436335	      0.109413	      0.315353	      0.067932	      0.020000	      0.069700	      0.023332	      0.054920
      0.043818	     -0.001403	     -0.166852	    122.786586	   -366.726248	      0.020000	      0.180503	      0.435672	      0.114341	      0.436908	      0.109358	      0.314409	      0.068058	      0.020000	      0.069822	      0.023313	      0.055006
      0.044252	     -0.001475	     -0.167420	    122.627606	   -366.253899	      0.020000	      0.180452	      0.436266	      0.114286	      0.437459	      0.109303	      0.313477	      0.068183	      0.020000	      0.069944	      0.023294	      0.055047
      0.044625	     -0.001538	     -0.169617	    122.491057	   -365.836874	      0.020000	      0.180408	      0.436758	      0.114238	      0.437916	      0.109255	      0.312683	      0.068291	      0.020000	      0.070049	      0.023277	      0.055133
      0.044998	     -0.001601	     -0.169439	    122.354660	   -365.436822	      0.020000	      0.180363	      0.437234	      0.114190	      0.438359	      0.109208	      0.311898	      0.068399	      0.020000	      0.070154	      0.023261	      0.055161
      0.045529	     -0.001692	     -0.170665	    122.160792	   -364.858573	      0.020000	      0.180301	      0.437886	      0.114123	      0.438964	      0.109140	      0.310795	      0.068553	      0.020000	      0.070304	      0.023238	      0.055237
      0.045914	     -0.001758	     -0.172653	    122.020510	   -364.433012	      0.020000	      0.180255	      0.438340	      0.114074	      0.439386	      0.109092	      0.310005	      0.068664	      0.020000	      0.070412	      0.023221	      0.055323
      0.046299	     -0.001824	     -0.172360	    121.880388	   -364.023473	      0.020000	      0.180210	      0.438778	      0.114025	      0.439793	      0.109043	      0.309224	      0.068776	      0.020000	      0.070521	      0.023205	      0.055354
      0.046924	     -0.001932	     -0.175282	    121.653109	   -363.336787	      0.020000	      0.180136	      0.439459	      0.113946	      0.440427	      0.108964	      0.307972	      0.068956	      0.020000	      0.070697	      0.023178	      0.055483
      0.047549	     -0.002041	     -0.173997	    121.426250	   -362.679520	      0.020000	      0.180062	      0.440104	      0.113867	      0.441026	      0.108886	      0.306741	      0.069137	      0.020000	      0.070874	      0.023152	      0.055532
